<svg xmlns="http://www.w3.org/2000/svg" version="1.1" xmlns:xlink="http://www.w3.org/1999/xlink" xmlns:svgjs="http://svgjs.dev/svgjs" width="1500" height="1500" viewBox="0 0 1500 1500"><rect width="1500" height="1500" fill="#ffffff"></rect><g transform="matrix(0.6666666666666666,0,0,0.6666666666666666,249.39393939393938,651.9786610205555)"><svg viewBox="0 0 396 78" data-background-color="#ffffff" preserveAspectRatio="xMidYMid meet" height="295" width="1500" xmlns="http://www.w3.org/2000/svg" xmlns:xlink="http://www.w3.org/1999/xlink"><g id="tight-bounds" transform="matrix(1,0,0,1,0.2400000000000091,-0.12374013357620584)"><svg viewBox="0 0 395.52 78.2474802671524" height="78.2474802671524" width="395.52"><g><svg viewBox="0 0 395.52 78.2474802671524" height="78.2474802671524" width="395.52"><g><svg viewBox="0 0 395.52 78.2474802671524" height="78.2474802671524" width="395.52"><g id="textblocktransform"><svg viewBox="0 0 395.52 78.2474802671524" height="78.2474802671524" width="395.52" id="textblock"><g><svg viewBox="0 0 395.52 78.2474802671524" height="78.2474802671524" width="395.52"><g transform="matrix(1,0,0,1,0,0)"><svg width="395.52" viewBox="0.81 -36.84 241.23 47.730000000000004" height="78.2474802671524" data-palette-color="#ffffff"><path d="M29.15-33.54L29.15-25.56 26.2-25.56 25.49-30.25Q25.32-31.1 24.66-31.1L24.66-31.1 17.5-31.1 17.5-3.44Q17.5-3.08 17.76-2.73 18.02-2.39 18.55-2.34L18.55-2.34 21.75-2.15 21.75 0 8.2 0 8.2-2.15 11.4-2.34Q11.94-2.39 12.19-2.73 12.45-3.08 12.45-3.44L12.45-3.44 12.45-31.1 5.25-31.1Q4.52-31.1 4.39-30.25L4.39-30.25 3.71-25.56 0.81-25.56 0.81-33.54 29.15-33.54ZM52.76-5.54L52.76-2.49Q50.66-1.2 48.23-0.29 45.8 0.61 43.26 0.61L43.26 0.61Q40.23 0.61 37.58-0.74 34.93-2.1 33.3-4.86 31.66-7.62 31.66-11.79L31.66-11.79Q31.66-15.7 33.18-18.6 34.69-21.51 37.35-23.11 40.01-24.71 43.41-24.71L43.41-24.71Q48.07-24.71 50.41-21.81 52.76-18.92 52.76-14.45L52.76-14.45Q52.76-14.21 52.76-13.81 52.76-13.4 52.71-13.06L52.71-13.06 36.5-13.06Q36.5-11.16 36.9-9.27 37.3-7.37 38.25-5.83 39.21-4.3 40.82-3.37 42.43-2.44 44.85-2.44L44.85-2.44Q46.99-2.44 49.03-3.43 51.07-4.42 52.76-5.54L52.76-5.54ZM36.77-15.31L47.75-15.31 47.75-16.41Q47.75-18.87 46.57-20.56 45.38-22.24 42.89-22.24L42.89-22.24Q40.43-22.24 38.69-20.39 36.96-18.53 36.77-15.31L36.77-15.31ZM76.07-4.71L76.07-4.71 76.07-1.86Q74.38-0.95 72.27-0.17 70.16 0.61 67.62 0.61L67.62 0.61Q64.13 0.61 61.56-1.03 58.98-2.66 57.58-5.48 56.17-8.3 56.17-11.89L56.17-11.89Q56.17-16.09 57.84-18.95 59.52-21.8 62.26-23.25 65.01-24.71 68.21-24.71L68.21-24.71Q71.5-24.71 73.74-23.43 75.97-22.14 75.97-19.7L75.97-19.7Q75.97-18.24 75.06-17.49 74.14-16.75 73.02-16.75L73.02-16.75Q72.19-16.75 71.58-17.03 70.97-17.31 70.5-17.6L70.5-17.6 70.5-21.95Q69.36-22.61 68.4-22.61L68.4-22.61Q66.18-22.61 64.58-21.3 62.98-20 62.13-17.72 61.27-15.45 61.27-12.55L61.27-12.55Q61.27-9.79 62.2-7.51 63.13-5.22 64.97-3.88 66.82-2.54 69.55-2.54L69.55-2.54Q71.28-2.54 72.87-3.1 74.46-3.66 76.07-4.71ZM105.29-1.95L105.29 0 94.16 0 94.16-1.95 96.21-2.1Q96.65-2.15 96.98-2.44 97.31-2.73 97.31-3.2L97.31-3.2 97.31-16.09Q97.31-18.24 96.28-19.64 95.26-21.04 92.35-21.04L92.35-21.04Q91.03-21.04 89.51-20.63 87.98-20.21 86.91-19.6L86.91-19.6 86.91-3.2Q86.91-2.17 87.91-2.1L87.91-2.1 90.06-1.95 90.06 0 78.8 0 78.8-1.95 81.19-2.1Q82.24-2.17 82.24-3.2L82.24-3.2 82.24-33.25 78.51-33.25 78.51-34.91 84.9-36.84 86.91-36.84 86.91-21.61Q87.81-22.17 89.25-22.89 90.69-23.61 92.28-24.16 93.86-24.71 95.16-24.71L95.16-24.71Q98.04-24.71 99.99-22.85 101.95-21 101.95-17.14L101.95-17.14 101.95-3.2Q101.95-2.73 102.28-2.44 102.6-2.15 103.04-2.1L103.04-2.1 105.29-1.95ZM131.46-1.95L131.46 0 120.72 0 120.72-1.95 122.4-2.15Q122.94-2.2 122.94-2.76L122.94-2.76Q122.94-2.91 122.87-3.05L122.87-3.05 118.57-9.45 113.66-3.05Q113.54-2.93 113.54-2.66L113.54-2.66Q113.54-2.17 113.95-2.15L113.95-2.15 116.47-1.95 116.47 0 106.95 0 106.95-1.95 109.8-2.34 116.96-11.65 110.17-21.7 107.22-22.14 107.22-24.1 118.2-24.1 118.2-22.14 116.47-21.9Q115.88-21.83 115.88-21.26L115.88-21.26Q115.88-21.12 115.96-21L115.96-21 119.91-15.41 124.26-21Q124.38-21.17 124.38-21.34L124.38-21.34Q124.38-21.85 123.92-21.9L123.92-21.9 121.77-22.14 121.77-24.1 130.75-24.1 130.75-22.14 128.07-21.7 121.35-13.16 128.75-2.34 131.46-1.95ZM158.19-12.4L158.19-12.4Q158.19-8.47 156.68-5.54 155.16-2.61 152.33-1 149.5 0.61 145.54 0.61L145.54 0.61Q144.64 0.61 143.6 0.49 142.57 0.37 141.83 0.26 141.1 0.15 141.1 0.15L141.1 0.15 141.1 7.59Q141.1 8.06 141.42 8.33 141.74 8.59 142.2 8.64L142.2 8.64 145.15 8.96 145.15 10.89 133 10.89 133 8.96 135.39 8.64Q136.44 8.57 136.44 7.59L136.44 7.59 136.44-20.56 133-20.56 133-22.19 139.15-24.1 141.1-24.1 141.1-21.61Q141.1-21.61 141.72-22.07 142.35-22.53 143.41-23.16 144.47-23.78 145.82-24.24 147.18-24.71 148.64-24.71L148.64-24.71Q151.23-24.71 153.39-23.18 155.55-21.66 156.87-18.9 158.19-16.14 158.19-12.4ZM153.19-11.69L153.19-11.69Q153.19-14.28 152.39-16.43 151.6-18.58 150.05-19.89 148.5-21.19 146.2-21.19L146.2-21.19Q144.96-21.19 143.79-20.83 142.61-20.46 141.86-20.08 141.1-19.7 141.1-19.7L141.1-19.7 141.1-2.49Q141.1-2.49 142.36-2.1 143.62-1.71 145.15-1.71L145.15-1.71Q147.91-1.71 149.68-3.13 151.45-4.54 152.32-6.82 153.19-9.11 153.19-11.69ZM178.94-23.95L178.94-18.99 176.99-18.99Q176.52-19.56 175.88-19.96 175.23-20.36 174.3-20.36L174.3-20.36Q173.11-20.36 171.85-19.53 170.59-18.7 169.3-17.26L169.3-17.26 169.3-3.2Q169.3-2.15 170.35-2.1L170.35-2.1 173.64-1.95 173.64 0 161.14 0 161.14-1.9 163.61-2.1Q164.05-2.15 164.35-2.44 164.66-2.73 164.66-3.2L164.66-3.2 164.66-20.56 161.04-20.56 161.04-22.19 167.25-24.1 169.3-24.1 169.3-19.65Q170.03-20.46 171.13-21.66 172.23-22.85 173.47-23.78 174.72-24.71 175.89-24.71L175.89-24.71Q176.67-24.71 177.57-24.46 178.48-24.22 178.94-23.95L178.94-23.95ZM202.25-5.54L202.25-2.49Q200.15-1.2 197.72-0.29 195.3 0.61 192.76 0.61L192.76 0.61Q189.73 0.61 187.08-0.74 184.43-2.1 182.8-4.86 181.16-7.62 181.16-11.79L181.16-11.79Q181.16-15.7 182.67-18.6 184.19-21.51 186.85-23.11 189.51-24.71 192.9-24.71L192.9-24.71Q197.57-24.71 199.91-21.81 202.25-18.92 202.25-14.45L202.25-14.45Q202.25-14.21 202.25-13.81 202.25-13.4 202.2-13.06L202.2-13.06 185.99-13.06Q185.99-11.16 186.4-9.27 186.8-7.37 187.75-5.83 188.7-4.3 190.31-3.37 191.93-2.44 194.34-2.44L194.34-2.44Q196.49-2.44 198.53-3.43 200.57-4.42 202.25-5.54L202.25-5.54ZM186.26-15.31L197.25-15.31 197.25-16.41Q197.25-18.87 196.06-20.56 194.88-22.24 192.39-22.24L192.39-22.24Q189.92-22.24 188.19-20.39 186.46-18.53 186.26-15.31L186.26-15.31ZM222.15-7.25L222.15-7.25Q222.15-3.56 219.61-1.48 217.07 0.61 212.6 0.61L212.6 0.61Q210.31 0.61 208.37 0.13 206.43-0.34 205.67-0.66L205.67-0.66 205.67-7.3 208.21-7.3 208.82-3.05Q209.57-2.56 210.69-2.11 211.8-1.66 213.26-1.66L213.26-1.66Q215.41-1.66 216.58-2.86 217.75-4.05 217.75-5.54L217.75-5.54Q217.75-7.52 216.34-8.53 214.92-9.55 212.31-10.79L212.31-10.79 211.65-11.11Q208.92-12.4 207.46-13.81 206.01-15.21 206.01-17.46L206.01-17.46Q206.01-20.8 208.35-22.75 210.7-24.71 215.02-24.71L215.02-24.71Q217.22-24.71 218.94-24.3 220.66-23.9 221.42-23.56L221.42-23.56 221.42-17.65 218.8-17.65 218.41-21.14Q217.88-21.56 216.83-21.92 215.78-22.29 214.6-22.29L214.6-22.29Q212.55-22.29 211.55-21.35 210.55-20.41 210.55-18.95L210.55-18.95Q210.55-17.26 211.76-16.27 212.97-15.28 216.14-13.84L216.14-13.84Q218.75-12.65 220.45-11.17 222.15-9.69 222.15-7.25ZM242.04-7.25L242.04-7.25Q242.04-3.56 239.5-1.48 236.96 0.61 232.5 0.61L232.5 0.61Q230.2 0.61 228.26 0.13 226.32-0.34 225.56-0.66L225.56-0.66 225.56-7.3 228.1-7.3 228.71-3.05Q229.47-2.56 230.58-2.11 231.69-1.66 233.16-1.66L233.16-1.66Q235.3-1.66 236.48-2.86 237.65-4.05 237.65-5.54L237.65-5.54Q237.65-7.52 236.23-8.53 234.82-9.55 232.2-10.79L232.2-10.79 231.54-11.11Q228.81-12.4 227.36-13.81 225.91-15.21 225.91-17.46L225.91-17.46Q225.91-20.8 228.25-22.75 230.59-24.71 234.91-24.71L234.91-24.71Q237.11-24.71 238.83-24.3 240.55-23.9 241.31-23.56L241.31-23.56 241.31-17.65 238.7-17.65 238.31-21.14Q237.77-21.56 236.72-21.92 235.67-22.29 234.5-22.29L234.5-22.29Q232.45-22.29 231.45-21.35 230.45-20.41 230.45-18.95L230.45-18.95Q230.45-17.26 231.65-16.27 232.86-15.28 236.04-13.84L236.04-13.84Q238.65-12.65 240.35-11.17 242.04-9.69 242.04-7.25Z" opacity="1" transform="matrix(1,0,0,1,0,0)" fill="#ffffff" class="wordmark-text-0" data-fill-palette-color="primary" id="text-0"></path></svg></g></svg></g></svg></g></svg></g></svg></g><defs></defs></svg><rect width="395.52" height="78.2474802671524" fill="none" stroke="none" visibility="hidden"></rect></g></svg></g></svg>